#Comment line ignore any data following # character 
#Hierarchical Translation and Rotation (.htr) file 
[Header]	
#Header keywords are followed by a single value 
FileType HTR		#Single word string
DataType HTRS		#Translation followed by rotation and scale data
FileVersion 1		#integer
NumSegments 14		#integer
NumFrames 8		#integer
DataFrameRate 30		#integer, data frame rate in this file
EulerRotationOrder ZYX
CalibrationUnits mm
RotationUnits Degrees
GlobalAxisofGravity Y
BoneLengthAxis Y
ScaleFactor 1.00
[SegmentNames&Hierarchy]
#CHILD	PARENT
MASTER GLOBAL
weapon MASTER
barrel_root weapon
middle_left_energyLow_part1 weapon
middle_left_energyLow_part2 weapon
middle_left_root weapon
middle_right_energyLow_part1 weapon
middle_top weapon
barrel1_top_root barrel_root
barrel2_top_root barrel_root
barrel3_top_root barrel_root
barrel1_top_back barrel1_top_root
barrel2_top_back barrel2_top_root
barrel3_top_back barrel3_top_root
[BasePosition]
#SegmentName Tx, Ty, Tz, Rx, Ry, Rz, BoneLength
MASTER 0.000000 0.000000 0.000000 -90.000000 0.000000 0.000000 10.000000 
weapon 0.000000 0.000000 0.000000 0.000000 0.000000 0.000000 10.000000 
barrel_root 0.000000 0.000000 0.000000 0.000000 0.000000 0.000000 10.000000 
middle_left_energyLow_part1 0.000000 0.000000 0.000000 0.000000 0.000000 0.000000 10.000000 
middle_left_energyLow_part2 0.000000 0.000000 0.000000 0.000000 0.000000 0.000000 10.000000 
middle_left_root 0.000000 0.000000 0.000000 0.000000 0.000000 0.000000 10.000000 
middle_right_energyLow_part1 0.000000 0.000000 0.000000 0.000000 0.000000 0.000000 10.000000 
middle_top 0.000000 0.000000 0.000000 0.000000 0.000000 0.000000 10.000000 
barrel1_top_root 0.000000 0.000000 0.000000 0.000000 0.000000 0.000000 10.000000 
barrel2_top_root 0.000000 0.000000 0.000000 0.000000 0.000000 0.000000 10.000000 
barrel3_top_root 0.000000 0.000000 0.000000 0.000000 0.000000 0.000000 10.000000 
barrel1_top_back 0.000000 0.000000 0.000000 0.000000 0.000000 0.000000 10.000000 
barrel2_top_back 0.000000 0.000000 0.000000 0.000000 0.000000 0.000000 10.000000 
barrel3_top_back 0.000000 0.000000 0.000000 0.000000 0.000000 0.000000 10.000000 
#Beginning of Data. Separated by tabs
#Fr	Tx	Ty	Tz	Rx	Ry	Rz	SF
[MASTER]
86 0.000000 0.000000 0.000000 0.000000 -0.000000 0.000000 0.000000
87 0.000000 0.000000 0.000000 0.000000 -0.000000 0.000000 0.000000
88 0.000000 0.000000 0.000000 0.000000 -0.000000 0.000000 0.000000
89 0.000000 0.000000 0.000000 0.000000 -0.000000 0.000000 0.000000
90 0.000000 0.000000 0.000000 0.000000 -0.000000 0.000000 0.000000
91 0.000000 0.000000 0.000000 0.000000 -0.000000 0.000000 0.000000
92 0.000000 0.000000 0.000000 0.000000 -0.000000 0.000000 0.000000
93 0.000000 0.000000 0.000000 0.000000 -0.000000 0.000000 0.000000
[weapon]
86 0.000000 -104.980469 30.104597 0.000000 0.000000 -0.000020 109.211655
87 0.000019 -104.980469 30.104597 0.000000 0.000000 -0.000020 109.211655
88 0.000038 -104.980385 30.104597 0.000000 0.000000 -0.000020 109.211578
89 -0.000038 -104.980469 30.104597 0.000000 0.000000 -0.000020 109.211655
90 0.000019 -104.980469 30.104597 0.000000 0.000000 -0.000020 109.211655
91 0.000000 -104.980469 30.104597 0.000000 0.000000 -0.000020 109.211655
92 0.000000 -104.980469 30.104675 0.000000 0.000000 -0.000020 109.211678
93 0.000019 -104.980545 30.104521 0.000000 0.000000 -0.000020 109.211700
[barrel_root]
86 -0.000038 328.867126 -55.258606 0.001496 -13.342196 0.001496 333.477295
87 -0.000038 328.871704 -55.258598 0.001577 -6.148781 0.001577 333.481812
88 -0.000038 328.876251 -55.258595 0.001637 -1.590904 0.001637 333.486298
89 -0.000038 328.880829 -55.258587 0.001660 0.001643 0.001660 333.490784
90 -0.000038 328.885376 -55.258579 0.001629 -2.241801 0.001629 333.495270
91 -0.000038 328.889954 -55.258572 0.001598 -4.485208 0.001598 333.499786
92 -0.000038 328.894531 -55.258564 0.001629 -2.241766 0.001629 333.504303
93 -0.000038 328.899017 -55.258556 0.001660 0.001660 0.001660 333.508728
[middle_left_energyLow_part1]
86 -152.219681 -30.653109 -39.080482 0.001660 0.001660 0.001660 160.117859
87 -152.219681 -30.653099 -39.080479 0.001660 0.001660 0.001660 160.117859
88 -152.219681 -30.653090 -39.080475 0.001660 0.001660 0.001660 160.117859
89 -152.219681 -30.653080 -39.080471 0.001660 0.001660 0.001660 160.117859
90 -152.219681 -30.653072 -39.080463 0.001660 0.001660 0.001660 160.117859
91 -152.219681 -30.653063 -39.080460 0.001660 0.001660 0.001660 160.117844
92 -152.219681 -30.653053 -39.080456 0.001660 0.001660 0.001660 160.117844
93 -152.219681 -30.653044 -39.080452 0.001660 0.001660 0.001660 160.117844
[middle_left_energyLow_part2]
86 -169.986176 -28.308784 -78.007370 0.001660 0.001660 0.001660 189.160889
87 -169.986176 -28.308771 -78.007362 0.001660 0.001660 0.001660 189.160873
88 -169.986176 -28.308760 -78.007355 0.001660 0.001660 0.001660 189.160873
89 -169.986191 -28.308748 -78.007347 0.001660 0.001660 0.001660 189.160873
90 -169.986191 -28.308737 -78.007339 0.001660 0.001660 0.001660 189.160873
91 -169.986191 -28.308723 -78.007332 0.001660 0.001660 0.001660 189.160858
92 -169.986191 -28.308712 -78.007324 0.001660 0.001660 0.001660 189.160858
93 -169.986191 -28.308699 -78.007317 0.001660 0.001660 0.001660 189.160858
[middle_left_root]
86 -69.244331 -30.652924 -78.054810 0.003432 -50.001465 179.996567 108.751701
87 -69.244331 -30.652924 -78.054810 0.003432 -50.001465 179.996567 108.751701
88 -69.244331 -30.652924 -78.054810 0.003432 -50.001465 179.996567 108.751701
89 -69.244331 -30.652924 -78.054810 0.003432 -50.001465 179.996567 108.751701
90 -69.244339 -30.652924 -78.054810 0.003432 -50.001465 179.996567 108.751709
91 -69.244339 -30.652924 -78.054810 0.003432 -50.001465 179.996567 108.751709
92 -69.244339 -30.652924 -78.054810 0.003432 -50.001465 179.996567 108.751709
93 -69.244339 -30.652924 -78.054810 0.003432 -50.001465 179.996567 108.751709
[middle_right_energyLow_part1]
86 142.814270 -29.615227 -39.080353 0.001660 -0.001660 179.998337 150.997513
87 142.814270 -29.615223 -39.080353 0.001660 -0.001660 179.998337 150.997513
88 142.814270 -29.615217 -39.080353 0.001660 -0.001660 179.998337 150.997513
89 142.814285 -29.615213 -39.080353 0.001660 -0.001660 179.998337 150.997528
90 142.814285 -29.615208 -39.080353 0.001660 -0.001660 179.998337 150.997528
91 142.814301 -29.615204 -39.080353 0.001660 -0.001660 179.998337 150.997543
92 142.814301 -29.615200 -39.080353 0.001660 -0.001660 179.998337 150.997543
93 142.814301 -29.615196 -39.080353 0.001660 -0.001660 179.998337 150.997543
[middle_top]
86 -3.220444 49.870071 65.535294 0.001660 0.001660 0.001660 82.415230
87 -3.220501 49.870071 67.776489 0.001660 0.001660 0.001660 84.208359
88 -3.220491 49.870071 63.454433 0.001660 0.001660 0.001660 80.770424
89 -3.220482 49.870071 59.132381 0.001660 0.001660 0.001660 77.421150
90 -3.220482 49.870090 59.132362 0.001660 0.001660 0.001660 77.421143
91 -3.220482 49.870102 59.132347 0.001660 0.001660 0.001660 77.421143
92 -3.220482 49.870121 59.132332 0.001660 0.001660 0.001660 77.421143
93 -3.220482 49.870136 59.132317 0.001660 0.001660 0.001660 77.421143
[barrel1_top_root]
86 0.000081 96.240509 0.000132 0.000000 -0.000000 0.000000 96.240509
87 0.000081 96.240509 0.000132 0.000000 -0.000000 0.000000 96.240509
88 0.000081 96.240509 0.000132 0.000000 -0.000000 0.000000 96.240509
89 0.000081 96.240509 0.000132 0.000000 -0.000000 0.000000 96.240509
90 0.000081 96.240509 0.000132 0.000000 -0.000000 0.000000 96.240509
91 0.000081 96.240509 0.000132 0.000000 -0.000000 0.000000 96.240509
92 0.000081 96.240509 0.000132 0.000000 -0.000000 0.000000 96.240509
93 0.000081 96.240509 0.000132 0.000000 -0.000000 0.000000 96.240509
[barrel2_top_root]
86 -0.000009 124.139923 0.000132 0.001178 -79.640854 0.001178 124.139923
87 -0.000009 124.139923 0.000132 179.998825 -79.640678 179.998825 124.139923
88 -0.000009 124.139923 0.000132 179.998795 -62.278473 179.998795 124.139923
89 -0.000009 124.139923 0.000132 179.998779 -54.999756 179.998779 124.139923
90 -0.000009 124.139923 0.000132 179.998795 -62.220772 179.998795 124.139923
91 -0.000009 124.139923 0.000132 179.998810 -69.438782 179.998810 124.139923
92 -0.000009 124.139923 0.000132 179.998795 -62.220654 179.998795 124.139923
93 -0.000009 124.139923 0.000132 179.998779 -54.999702 179.998779 124.139923
[barrel3_top_root]
86 0.000101 69.591400 0.000123 0.003903 54.997925 0.003903 69.591400
87 0.000101 69.591400 0.000123 0.004900 62.282352 0.004900 69.591400
88 0.000101 69.591400 0.000123 0.012997 79.638535 0.012997 69.591400
89 0.000101 69.591400 0.000123 179.987000 79.638420 179.987000 69.591400
90 0.000101 69.591400 0.000123 179.995102 62.282291 179.995102 69.591400
91 0.000101 69.591400 0.000123 179.996094 54.997871 179.996094 69.591400
92 0.000101 69.591400 0.000123 179.996094 54.997871 179.996094 69.591400
93 0.000101 69.591400 0.000123 179.996094 54.997871 179.996094 69.591400
[barrel1_top_back]
86 -3.343935 98.041893 186.671844 -27.288557 0.002004 0.001221 210.878571
87 -3.343935 98.041893 186.671844 -14.822289 0.001860 0.001432 210.878571
88 -3.343935 98.041893 186.671844 -4.381288 0.001722 0.001595 210.878571
89 -3.343935 98.041893 186.671844 0.001639 0.001660 0.001660 210.878571
90 -3.343935 98.041893 186.671844 -2.664328 0.001698 0.001621 210.878571
91 -3.343935 98.041893 186.671844 -5.326740 0.001735 0.001581 210.878571
92 -3.343935 98.041893 186.671844 -2.664287 0.001698 0.001621 210.878571
93 -3.343935 98.041893 186.671844 0.001660 0.001660 0.001660 210.878571
[barrel2_top_back]
86 3.886122 70.142326 185.630630 -13.900054 0.001848 0.001447 198.478668
87 3.886122 70.142326 185.630630 -7.550924 0.001765 0.001547 198.478668
88 3.886122 70.142326 185.630630 -2.228988 0.001692 0.001627 198.478668
89 3.886122 70.142326 185.630630 0.001643 0.001660 0.001660 198.478668
90 3.886122 70.142326 185.630630 -2.219527 0.001692 0.001628 198.478668
91 3.886122 70.142326 185.630630 -4.440662 0.001723 0.001594 198.478668
92 3.886122 70.142326 185.630630 -2.219493 0.001692 0.001628 198.478668
93 3.886122 70.142326 185.630630 0.001660 0.001660 0.001660 198.478668
[barrel3_top_back]
86 -0.050068 125.495209 180.152344 -33.345867 0.002066 0.001114 219.553894
87 -0.050068 125.495209 180.152344 -29.876245 0.002031 0.001176 219.553894
88 -0.050068 125.495209 180.152344 -21.605228 0.001941 0.001319 219.553894
89 -0.050068 125.495209 180.152344 -11.735106 0.001821 0.001481 219.553894
90 -0.050068 125.495209 180.152344 -3.465770 0.001709 0.001609 219.553894
91 -0.050068 125.495209 180.152344 0.001660 0.001660 0.001660 219.553894
92 -0.050068 125.495209 180.152344 0.001660 0.001660 0.001660 219.553894
93 -0.050068 125.495209 180.152344 0.001660 0.001660 0.001660 219.553894
